<svg xmlns="http://www.w3.org/2000/svg" fill="none" viewBox="0 0 207 99" height="99" width="207">
<g clip-path="url(#clip0_73_11)">
<path fill="#B2ACEF" d="M199.046 0.0416657L0.0234985 19.7574L7.8119 98.3779L206.834 78.6622L199.046 0.0416657Z"></path>
<path fill="#E4C251" d="M37.6753 10.8579H3.04742V91.0619H37.6753V10.8579Z"></path>
<path fill="#E4C251" d="M38.5783 10.8579H3.95038V91.0619H38.5783V10.8579Z"></path>
<path stroke-miterlimit="10" stroke="#8E2A27" d="M38.5783 10.8579H3.95038V91.0619H38.5783V10.8579Z"></path>
<path fill="white" d="M203.14 69.5719H43.4091V89.5495H203.14V69.5719Z"></path>
<path fill="#313531" d="M202.801 89.2109H43.7476V69.9105H202.801V89.2109ZM203.479 69.2333H43.0704V89.8881H203.479V69.2333Z"></path>
<path fill="#34342F" d="M70.5651 77.4952H72.213V78.0595C72.213 78.5787 72.3484 78.827 72.7322 78.827C73.1159 78.827 73.2062 78.4658 73.2062 78.0821C73.2062 77.3146 73.0482 77.1114 72.1679 76.4116C71.1972 75.6441 70.678 75.1927 70.678 73.9963C70.678 72.845 71.0843 71.7841 72.7322 71.7841C74.4704 71.7841 74.7412 72.8902 74.7412 73.8157V74.2897H73.1611V73.8157C73.1611 73.3191 73.0708 73.0933 72.7548 73.0933C72.4387 73.0933 72.3484 73.3416 72.3484 73.7931C72.3484 74.2672 72.4387 74.5155 73.1611 75.0347C74.4478 75.9602 74.8993 76.4794 74.8993 77.8112C74.8993 79.0753 74.4252 80.1137 72.7096 80.1137C71.0617 80.1137 70.5877 79.1882 70.5877 77.9918V77.4952H70.5651ZM79.6623 76.4342H77.879V78.6239H79.9783L79.7752 79.9783H76.2085V71.9195H79.7752V73.2965H77.879V75.0572H79.6623V76.4342ZM82.8226 76.4794V79.9783H81.1521V71.9195H83.3192C84.7865 71.9195 85.4863 72.5064 85.4863 73.9286V74.222C85.4863 75.3733 84.9897 75.7119 84.6285 75.8699C85.1702 76.1182 85.4186 76.4794 85.4186 77.608C85.4186 78.3755 85.396 79.572 85.4863 79.9783H83.861C83.7481 79.6171 83.7707 78.5561 83.7707 77.5403C83.7707 76.6374 83.6578 76.4794 83.0258 76.4794H82.8226ZM82.8226 75.2604H83.0258C83.5901 75.2604 83.8158 75.1024 83.8158 74.3574V73.9737C83.8158 73.4319 83.703 73.161 83.0935 73.161H82.8226V75.2604ZM87.8339 79.9783L86.5247 71.9195H88.308L88.624 74.8992C88.7369 75.9376 88.8723 77.1114 88.9175 78.1272H88.9852C89.0303 77.1114 89.1884 76.0053 89.2786 74.8992L89.5495 71.8969H91.2877L90.001 79.9557H87.8339V79.9783ZM94.132 71.9195V79.9783H92.4615V71.9195H94.132ZM99.9334 77.7886C99.9334 78.8045 99.7302 80.1137 97.7437 80.1137C96.2765 80.1137 95.6218 79.3914 95.6218 77.9015V73.9511C95.6218 72.5516 96.3668 71.8066 97.7663 71.8066C99.5948 71.8066 99.9108 72.9353 99.9108 73.9737V74.4703H98.2178V73.7931C98.2178 73.3416 98.1049 73.1159 97.7663 73.1159C97.4277 73.1159 97.3149 73.3191 97.3149 73.7931V78.0595C97.3149 78.4884 97.3826 78.7819 97.7663 78.7819C98.1275 78.7819 98.2404 78.5336 98.2404 78.0144V77.3372H99.9334V77.7886ZM102.913 71.9195V79.9783H101.243V71.9195H102.913ZM108.918 77.8112C108.918 79.4139 108.105 80.0911 106.593 80.0911C105.148 80.0911 104.403 79.3914 104.403 77.8338V74.0414C104.403 72.4838 105.328 71.8066 106.66 71.8066C108.015 71.8066 108.918 72.4838 108.918 74.0866V77.8112ZM106.096 78.0144C106.096 78.511 106.277 78.7819 106.66 78.7819C107.044 78.7819 107.225 78.5561 107.225 78.0144V73.8834C107.225 73.3868 107.067 73.1159 106.66 73.1159C106.299 73.1159 106.096 73.3642 106.096 73.8834V78.0144ZM113.658 77.4049C113.658 77.2694 113.636 77.134 113.59 76.9986L112.055 71.9421H113.884C114.11 73.0933 114.381 74.4477 114.493 75.4636H114.539C114.674 74.4929 114.967 73.1385 115.193 71.9421H116.909L115.351 77.134C115.329 77.2243 115.306 77.3146 115.306 77.4726V80.0008H113.636V77.4049H113.658ZM121.898 76.4794V79.9783H120.227V71.9195H122.394C123.861 71.9195 124.561 72.5064 124.561 73.9286V74.222C124.561 75.3733 124.065 75.7119 123.703 75.8699C124.245 76.1182 124.493 76.4794 124.493 77.608C124.493 78.3755 124.471 79.572 124.561 79.9783H122.936C122.823 79.6171 122.846 78.5561 122.846 77.5403C122.846 76.6374 122.733 76.4794 122.101 76.4794H121.898ZM121.898 75.2604H122.101C122.665 75.2604 122.891 75.1024 122.891 74.3574V73.9737C122.891 73.4319 122.778 73.161 122.168 73.161H121.898V75.2604ZM129.527 76.4342H127.744V78.6239H129.843L129.64 79.9783H126.074V71.9195H129.64V73.2965H127.744V75.0572H129.527V76.4342ZM131.017 71.9195H134.629V73.2965H132.688V75.1249H134.516V76.5019H132.688V79.9783H131.017V71.9195ZM137.135 78.0595L136.932 79.9783H135.216L136.435 71.9195H138.918L140.182 79.9783H138.444L138.196 78.0595H137.135ZM138.083 76.7051C137.97 75.6667 137.789 74.1091 137.699 73.3416H137.631C137.609 73.906 137.406 75.7119 137.27 76.7051H138.083ZM145.622 77.7886C145.622 78.8045 145.419 80.1137 143.433 80.1137C141.965 80.1137 141.311 79.3914 141.311 77.9015V73.9511C141.311 72.5516 142.056 71.8066 143.455 71.8066C145.284 71.8066 145.6 72.9353 145.6 73.9737V74.4703H143.907V73.7931C143.907 73.3416 143.794 73.1159 143.455 73.1159C143.117 73.1159 143.004 73.3191 143.004 73.7931V78.0595C143.004 78.4884 143.072 78.7819 143.455 78.7819C143.816 78.7819 143.929 78.5336 143.929 78.0144V77.3372H145.622V77.7886ZM151.221 77.7886C151.221 78.8045 151.017 80.1137 149.031 80.1137C147.564 80.1137 146.909 79.3914 146.909 77.9015V73.9511C146.909 72.5516 147.654 71.8066 149.054 71.8066C150.882 71.8066 151.198 72.9353 151.198 73.9737V74.4703H149.505V73.7931C149.505 73.3416 149.392 73.1159 149.054 73.1159C148.715 73.1159 148.602 73.3191 148.602 73.7931V78.0595C148.602 78.4884 148.67 78.7819 149.054 78.7819C149.415 78.7819 149.528 78.5336 149.528 78.0144V77.3372H151.221V77.7886ZM154.2 71.9195V79.9783H152.53V71.9195H154.2ZM160.228 77.8112C160.228 79.4139 159.415 80.0911 157.902 80.0911C156.458 80.0911 155.713 79.3914 155.713 77.8338V74.0414C155.713 72.4838 156.638 71.8066 157.97 71.8066C159.325 71.8066 160.228 72.4838 160.228 74.0866V77.8112ZM157.406 78.0144C157.406 78.511 157.586 78.7819 157.97 78.7819C158.354 78.7819 158.534 78.5561 158.534 78.0144V73.8834C158.534 73.3868 158.376 73.1159 157.97 73.1159C157.609 73.1159 157.406 73.3642 157.406 73.8834V78.0144ZM161.695 79.9783V71.9195H163.546C163.817 72.9127 164.697 76.5471 164.765 76.9083H164.81C164.72 75.8473 164.652 74.38 164.652 73.2513V71.9195H166.21V79.9783H164.336C164.155 79.2108 163.207 75.0347 163.139 74.7863H163.094C163.162 75.7344 163.207 77.3372 163.207 78.6013V79.9783H161.695ZM171.289 76.4342H169.505V78.6239H171.605L171.401 79.9783H167.835V71.9195H171.401V73.2965H169.505V75.0572H171.289V76.4342ZM172.643 77.4952H174.291V78.0595C174.291 78.5787 174.426 78.827 174.81 78.827C175.194 78.827 175.284 78.4658 175.284 78.0821C175.284 77.3146 175.126 77.1114 174.246 76.4116C173.275 75.6441 172.756 75.1927 172.756 73.9963C172.756 72.845 173.162 71.7841 174.81 71.7841C176.548 71.7841 176.819 72.8902 176.819 73.8157V74.2897H175.239V73.8157C175.239 73.3191 175.149 73.0933 174.833 73.0933C174.517 73.0933 174.426 73.3416 174.426 73.7931C174.426 74.2672 174.517 74.5155 175.239 75.0347C176.526 75.9602 176.977 76.4794 176.977 77.8112C176.977 79.0753 176.503 80.1137 174.787 80.1137C173.14 80.1137 172.666 79.1882 172.666 77.9918V77.4952H172.643Z"></path>
<path fill="white" d="M202.44 13.6796H39.8424V60.4972H202.44V13.6796Z"></path>
<path fill="black" d="M202.327 60.3844H39.9553V13.7925H202.327V60.3844ZM202.553 13.5668H39.7296V60.6102H202.553V13.5668Z"></path>
<path fill="#34342F" d="M89.7753 84.8317H88.4209V86.4795H90.001L89.843 87.5179H87.1567V81.4456H89.843V82.484H88.4209V83.8158H89.7753V84.8317ZM92.1681 81.423V86.4795H93.7482L93.6354 87.4953H90.904V81.423H92.1681ZM97.202 84.8317H95.8476V86.4795H97.4277L97.2697 87.5179H94.5835V81.4456H97.2697V82.484H95.8476V83.8158H97.202V84.8317ZM101.514 85.8475C101.514 86.615 101.356 87.5856 99.8657 87.5856C98.7596 87.5856 98.2629 87.0439 98.2629 85.9152V82.9355C98.2629 81.8745 98.8273 81.3327 99.8883 81.3327C101.265 81.3327 101.491 82.168 101.491 82.9806V83.3644H100.227V82.8452C100.227 82.5066 100.159 82.3486 99.8883 82.3486C99.6174 82.3486 99.5496 82.5066 99.5496 82.8452V86.0506C99.5496 86.3667 99.6174 86.5924 99.8883 86.5924C100.159 86.5924 100.249 86.4118 100.249 86.0281V85.5314H101.536V85.8475H101.514ZM103.229 82.4614H102.281V81.423H105.464V82.4614H104.493V87.4953H103.229V82.4614ZM107.586 84.8768V87.5179H106.322V81.4456H107.947C109.053 81.4456 109.595 81.8971 109.595 82.9581V83.1838C109.595 84.0416 109.211 84.3125 108.94 84.4253C109.347 84.6059 109.55 84.8768 109.55 85.7346C109.55 86.3215 109.55 87.2019 109.595 87.5179H108.376C108.286 87.247 108.308 86.457 108.308 85.6669C108.308 84.9897 108.218 84.8768 107.744 84.8768H107.586ZM107.608 83.9513H107.766C108.195 83.9513 108.353 83.8384 108.353 83.2515V82.9581C108.353 82.5517 108.263 82.3486 107.812 82.3486H107.608V83.9513ZM114.042 85.87C114.042 87.0664 113.432 87.5856 112.281 87.5856C111.198 87.5856 110.633 87.0664 110.633 85.87V83.0032C110.633 81.8294 111.333 81.3102 112.349 81.3102C113.365 81.3102 114.042 81.8068 114.042 83.0258V85.87ZM111.897 86.0281C111.897 86.4118 112.033 86.5924 112.326 86.5924C112.62 86.5924 112.755 86.4118 112.755 86.0055V82.8903C112.755 82.5066 112.642 82.326 112.326 82.326C112.055 82.326 111.92 82.5066 111.92 82.9129V86.0281H111.897ZM116.706 81.423C118.06 81.423 118.534 81.9874 118.534 83.2515V85.554C118.534 86.5924 118.286 87.5179 116.796 87.5179H115.171V81.4456H116.706V81.423ZM116.412 86.5698H116.66C117.157 86.5698 117.247 86.2764 117.247 85.8023V83.0709C117.247 82.6194 117.134 82.3711 116.66 82.3711H116.435V86.5698H116.412ZM122.981 85.87C122.981 87.0664 122.372 87.5856 121.22 87.5856C120.137 87.5856 119.572 87.0664 119.572 85.87V83.0032C119.572 81.8294 120.272 81.3102 121.288 81.3102C122.304 81.3102 122.981 81.8068 122.981 83.0258V85.87ZM120.837 86.0281C120.837 86.4118 120.972 86.5924 121.265 86.5924C121.559 86.5924 121.694 86.4118 121.694 86.0055V82.8903C121.694 82.5066 121.581 82.326 121.265 82.326C120.995 82.326 120.859 82.5066 120.859 82.9129V86.0281H120.837ZM127.473 85.5766C127.473 84.6285 127.473 83.2967 127.496 82.5517H127.451C127.315 83.7707 127.022 86.2312 126.841 87.5179H125.78C125.645 86.1861 125.351 83.6804 125.216 82.5517H125.171C125.193 83.2741 125.216 84.5833 125.216 85.6217V87.5179H124.065V81.4456H125.87C126.051 82.5969 126.232 84.1093 126.299 84.9445H126.322C126.412 84.0642 126.638 82.7775 126.841 81.4456H128.647V87.5179H127.428V85.5766H127.473ZM132.507 84.8317H131.153V86.4795H132.733L132.575 87.5179H129.889V81.4456H132.575V82.484H131.153V83.8158H132.507V84.8317ZM134.764 85.6443V86.0732C134.764 86.4795 134.877 86.6601 135.148 86.6601C135.442 86.6601 135.509 86.3892 135.509 86.0958C135.509 85.5314 135.397 85.3509 134.719 84.8317C133.974 84.2447 133.591 83.9061 133.591 83.0032C133.591 82.1454 133.907 81.3327 135.148 81.3327C136.458 81.3327 136.661 82.168 136.661 82.8678V83.2064H135.464V82.8452C135.464 82.484 135.397 82.3034 135.148 82.3034C134.922 82.3034 134.832 82.484 134.832 82.8226C134.832 83.1838 134.9 83.3644 135.442 83.7707C136.412 84.4705 136.751 84.8768 136.751 85.87C136.751 86.8181 136.39 87.6082 135.103 87.6082C133.862 87.6082 133.5 86.9084 133.5 86.0055V85.6443H134.764ZM138.421 82.4614H137.473V81.423H140.656V82.4614H139.686V87.4953H138.421V82.4614ZM142.801 81.423V87.4953H141.537V81.423H142.801ZM147.18 85.8475C147.18 86.615 147.022 87.5856 145.532 87.5856C144.426 87.5856 143.929 87.0439 143.929 85.9152V82.9355C143.929 81.8745 144.494 81.3327 145.555 81.3327C146.932 81.3327 147.157 82.168 147.157 82.9806V83.3644H145.893V82.8452C145.893 82.5066 145.826 82.3486 145.555 82.3486C145.284 82.3486 145.216 82.5066 145.216 82.8452V86.0506C145.216 86.3667 145.284 86.5924 145.555 86.5924C145.826 86.5924 145.916 86.4118 145.916 86.0281V85.5314H147.203V85.8475H147.18ZM149.347 86.0506L149.189 87.4953H147.902L148.828 81.423H150.701L151.65 87.4953H150.34L150.16 86.0506H149.347ZM150.069 85.0348C149.979 84.2673 149.844 83.0709 149.776 82.484H149.731C149.708 82.9129 149.55 84.2673 149.46 85.0348H150.069ZM153.681 85.6443V86.0732C153.681 86.4795 153.794 86.6601 154.065 86.6601C154.358 86.6601 154.426 86.3892 154.426 86.0958C154.426 85.5314 154.313 85.3509 153.636 84.8317C152.891 84.2447 152.507 83.9061 152.507 83.0032C152.507 82.1454 152.823 81.3327 154.065 81.3327C155.374 81.3327 155.577 82.168 155.577 82.8678V83.2064H154.404V82.8452C154.404 82.484 154.336 82.3034 154.087 82.3034C153.862 82.3034 153.771 82.484 153.771 82.8226C153.771 83.1838 153.839 83.3644 154.381 83.7707C155.352 84.4705 155.69 84.8768 155.69 85.87C155.69 86.8181 155.329 87.6082 154.042 87.6082C152.801 87.6082 152.44 86.9084 152.44 86.0055V85.6443H153.681Z"></path>
<path fill="#8E2A27" d="M60.3167 37.4722V34.4022H46.0276V27.8558H60.3167V24.831H46.0276V18.262H60.3167V15.8241H41.8289V37.4722H60.3167Z"></path>
<path fill="#8E2A27" d="M128.196 37.0659H130.882V21.7835L145.826 36.6595H148.85V15.8241H146.887V30.7678H146.3L131.401 15.8692H128.466L128.196 37.0659Z"></path>
<path fill="#8E2A27" d="M41.8289 38.4655H60.3167V40.4745H46.0953V46.9983H60.0232V50.2037H46.1631V56.4566H60.3167V59.3686H41.8289V38.4655Z"></path>
<mask height="113" width="245" y="-9" x="-18" maskUnits="userSpaceOnUse" style="mask-type:luminance" id="mask0_73_11">
<path fill="white" d="M226.413 -8.80371H-17.3817V103.161H226.413V-8.80371Z"></path>
</mask>
<g mask="url(#mask0_73_11)">
<path fill="#8E2A27" d="M83.7029 38.4655H87.7662V50.2037C87.7662 50.2037 88.6917 54.9893 94.7414 54.9893C96.6151 54.9893 99.7979 54.6733 102.033 50.2489C101.965 45.8922 101.694 38.4655 101.694 38.4655H104.132V52.1902C104.132 52.1902 103.477 59.0977 95.08 59.3686C92.7098 59.3686 87.4727 60.3393 83.7029 52.8223C83.8835 45.7567 83.7029 38.4655 83.7029 38.4655Z"></path>
</g>
<mask height="113" width="245" y="-9" x="-18" maskUnits="userSpaceOnUse" style="mask-type:luminance" id="mask1_73_11">
<path fill="white" d="M226.413 -8.80371H-17.3817V103.161H226.413V-8.80371Z"></path>
</mask>
<g mask="url(#mask1_73_11)">
<path fill="#8E2A27" d="M105.374 38.4655H109.64V57.0887H123.839V59.4138H105.374V38.4655Z"></path>
</g>
<mask height="113" width="245" y="-9" x="-18" maskUnits="userSpaceOnUse" style="mask-type:luminance" id="mask2_73_11">
<path fill="white" d="M226.413 -8.80371H-17.3817V103.161H226.413V-8.80371Z"></path>
</mask>
<g mask="url(#mask2_73_11)">
<path fill="#8E2A27" d="M119.302 38.4654H124.471L132.078 51.8967L139.144 38.1494H143.297L143.275 39.391L132.078 59.7975H130.95L119.302 38.4654Z"></path>
</g>
<mask height="113" width="245" y="-9" x="-18" maskUnits="userSpaceOnUse" style="mask-type:luminance" id="mask3_73_11">
<path fill="white" d="M226.413 -8.80371H-17.3817V103.161H226.413V-8.80371Z"></path>
</mask>
<g mask="url(#mask3_73_11)">
<path fill="#8E2A27" d="M144.065 38.1494H162.349L162.372 40.7002H148.264L148.309 46.8403H162.372V50.0683L148.467 50.0231V56.3889H162.372V59.4138H144.065V38.1494Z"></path>
</g>
<mask height="113" width="245" y="-9" x="-18" maskUnits="userSpaceOnUse" style="mask-type:luminance" id="mask4_73_11">
<path fill="white" d="M226.413 -8.80371H-17.3817V103.161H226.413V-8.80371Z"></path>
</mask>
<g mask="url(#mask4_73_11)">
<path fill="#8E2A27" d="M7.08814 16.9528C7.08814 16.9528 10.6548 16.9528 10.9031 18.6684V60.4296H7.08814V62.3709H19.9325C19.9325 62.3709 12.1446 68.4207 16.4788 81.1522C18.1944 85.8023 21.2869 90.3171 27.1109 89.843C29.12 89.685 36.5918 87.2696 37.1336 74.1544C37.1336 69.0979 36.9756 63.8382 31.4676 60.7231C27.427 58.556 19.2102 53.1158 25.1696 43.7929C26.3434 43.2511 27.743 41.3098 29.9778 43.0254C31.0613 43.6574 31.3773 43.6574 31.5354 51.7162L33.4767 51.7839L33.6347 39.4361L31.6257 39.5039V41.1292C31.6257 41.1292 29.2103 37.6303 23.7023 42.0547C22.235 43.522 17.7203 49.662 23.9281 57.9014C27.4947 61.0842 28.0364 61.626 30.4518 62.6418C31.7611 64.0414 34.4022 66.2987 33.7927 75.2153C33.567 79.8655 31.8514 89.5044 23.8603 87.0213C22.6188 86.6376 14.8535 78.4885 18.2621 68.3981C20.4291 64.1994 21.9867 61.8743 26.5014 62.5741C27.8107 63.1159 30.0004 66.6825 27.743 70.3394C26.3434 71.897 24.6278 74.1544 28.059 73.2063C29.3006 72.3485 33.6573 65.6667 28.059 62.1903C26.3434 61.3326 24.7181 60.9488 21.5352 61.6486V60.7908L16.4788 60.6328C16.4788 60.6328 14.9212 60.3167 15.0792 59.775C15.2372 59.2332 15.1469 33.4541 15.1469 33.4541C15.1469 33.4541 20.1131 31.7385 20.3389 35.3955C20.5646 39.0524 20.5646 42.2353 20.5646 42.2353H22.5059V24.5376L20.6323 24.6053L20.7 31.0388L19.9325 31.5128L14.9663 31.3548L15.2598 16.9077H21.6255C21.6255 16.9077 25.9145 17.8332 26.0725 22.4156L26.2306 26.9981H28.5556V13.6119H26.1854V15.1695H6.65924V16.998L7.08814 16.9528Z"></path>
</g>
<mask height="113" width="245" y="-9" x="-18" maskUnits="userSpaceOnUse" style="mask-type:luminance" id="mask5_73_11">
<path fill="white" d="M226.413 -8.80371H-17.3817V103.161H226.413V-8.80371Z"></path>
</mask>
<g mask="url(#mask5_73_11)">
<path fill="#8E2A27" d="M101.852 15.8241V30.6324H101.401L86.5924 15.8241H83.2064V35.102H82.7323C82.7323 35.102 82.7549 34.9439 78.1724 29.6617C82.1228 28.8942 82.3711 26.9529 82.6646 24.5375C83.4321 16.0047 77.0663 15.8467 77.0663 15.8467H61.1971V37.5173H65.5312V30.2486H72.529L79.1205 36.8401H86.5247V22.3027L101.062 36.8401H104.11V15.8467H101.852V15.8241ZM75.3507 27.156H65.0346V17.9234H75.1024C77.4727 18.2395 79.3237 20.5646 79.3237 22.1899C79.1657 25.6888 75.3507 27.156 75.3507 27.156Z"></path>
</g>
<mask height="113" width="245" y="-9" x="-18" maskUnits="userSpaceOnUse" style="mask-type:luminance" id="mask6_73_11">
<path fill="white" d="M226.413 -8.80371H-17.3817V103.161H226.413V-8.80371Z"></path>
</mask>
<g mask="url(#mask6_73_11)">
<path fill="#8E2A27" d="M117.089 15.8241H115.577L105.396 37.0659H108.557L110.227 33.4992H120.904L122.62 37.0659H127.247L117.089 15.8241ZM119.302 30.7678H111.514L111.288 29.8423L114.629 22.8671H116.096L119.595 29.3005L119.302 30.7678Z"></path>
</g>
<mask height="113" width="245" y="-9" x="-18" maskUnits="userSpaceOnUse" style="mask-type:luminance" id="mask7_73_11">
<path fill="white" d="M226.413 -8.80371H-17.3817V103.161H226.413V-8.80371Z"></path>
</mask>
<g mask="url(#mask7_73_11)">
<path fill="#8E2A27" d="M172.079 25.6436C172.079 20.9031 166.164 15.7112 163.726 15.8241C161.288 15.9369 149.641 15.8241 149.641 15.8241V36.6821H164.291C164.268 36.6595 172.53 32.8671 172.079 25.6436ZM163.252 34.5376H153.975V18.0363C153.975 18.0363 161.04 18.104 162.982 18.0363C164.765 18.42 167.316 22.393 167.857 24.9438C169.054 31.6933 163.252 34.5376 163.252 34.5376Z"></path>
</g>
<mask height="113" width="245" y="-9" x="-18" maskUnits="userSpaceOnUse" style="mask-type:luminance" id="mask8_73_11">
<path fill="white" d="M226.413 -8.80371H-17.3817V103.161H226.413V-8.80371Z"></path>
</mask>
<g mask="url(#mask8_73_11)">
<path fill="#8E2A27" d="M183.636 15.3951C176.638 15.4629 173.456 21.6932 173.072 25.6436C172.756 31.6933 176.097 34.1764 176.097 34.1764C178.264 37.2915 182.937 37.743 185.036 37.9913C195.352 36.5918 195.442 28.9167 195.6 27.2689C195.51 16.2529 187.203 15.3951 183.636 15.3951ZM191.65 30.4743C189.009 35.7791 184.539 34.4924 182.801 34.5376C176.797 32.4382 177.519 26.3433 177.677 24.8535C179.392 18.8715 184.201 18.4877 185.216 18.5554C189.799 18.7135 191.65 22.9799 191.65 22.9799C192.801 25.4855 192.034 29.4134 191.65 30.4743Z"></path>
</g>
<mask height="113" width="245" y="-9" x="-18" maskUnits="userSpaceOnUse" style="mask-type:luminance" id="mask9_73_11">
<path fill="white" d="M226.413 -8.80371H-17.3817V103.161H226.413V-8.80371Z"></path>
</mask>
<g mask="url(#mask9_73_11)">
<path fill="#8E2A27" d="M187.429 48.5332C187.496 46.9756 187.587 44.5828 186.074 42.2126C183.862 38.7588 179.934 38.1042 179.189 37.9913H163.794V59.7974H178.896C180.025 59.4814 182.146 58.7591 184.02 56.8854C187.203 53.7251 187.361 49.7296 187.429 48.5332ZM182.034 49.6619C182.056 52.8899 179.979 55.9374 177.903 56.6371H168.422V41.0388H177.88C177.903 41.0162 182.146 42.9124 182.034 49.6619Z"></path>
</g>
<mask height="113" width="245" y="-9" x="-18" maskUnits="userSpaceOnUse" style="mask-type:luminance" id="mask10_73_11">
<path fill="white" d="M226.413 -8.80371H-17.3817V103.161H226.413V-8.80371Z"></path>
</mask>
<g mask="url(#mask10_73_11)">
<path fill="#8E2A27" d="M193.794 39.2781H192.621L184.314 61.4679V61.784H187.925L188.761 59.5266H196.684L197.587 61.784H202.576L193.794 39.2781ZM196.074 56.4114H189.235V55.6439L192.259 47.7883H192.982L196.074 55.4859V56.4114Z"></path>
</g>
<mask height="113" width="245" y="-9" x="-18" maskUnits="userSpaceOnUse" style="mask-type:luminance" id="mask11_73_11">
<path fill="white" d="M226.413 -8.80371H-17.3817V103.161H226.413V-8.80371Z"></path>
</mask>
<g mask="url(#mask11_73_11)">
<path fill="#8E2A27" d="M78.2402 38.4655H61.1971V59.3686H65.3958L65.3732 52.4159L78.4885 52.0999C78.4885 52.0999 82.484 51.987 82.642 45.689C82.8 39.1652 78.2402 38.4655 78.2402 38.4655ZM78.6013 46.3662C78.2853 48.5333 74.651 49.3911 74.651 49.3911H65.4861V40.5422C65.4861 40.5422 71.2875 40.6099 75.2153 40.5422C79.3237 40.8583 78.7594 44.8312 78.6013 46.3662Z"></path>
</g>
<mask height="113" width="245" y="-9" x="-18" maskUnits="userSpaceOnUse" style="mask-type:luminance" id="mask12_73_11">
<path fill="white" d="M226.413 -8.80371H-17.3817V103.161H226.413V-8.80371Z"></path>
</mask>
<g mask="url(#mask12_73_11)">
<path fill="#93141A" d="M96.5699 36.7499H100.272L96.5699 41.6484H95.0123L96.5699 36.7499Z"></path>
</g>
</g>
<defs>
<clipPath id="clip0_73_11">
<rect fill="white" height="98.4209" width="207"></rect>
</clipPath>
</defs>
</svg>
